<svg width="24" height="25" viewBox="0 0 24 25" fill="none" xmlns="http://www.w3.org/2000/svg">
<mask id="mask0_11_1701" style="mask-type:alpha" maskUnits="userSpaceOnUse" x="0" y="0" width="24" height="25">
<rect y="0.628052" width="24" height="24" fill="#C4C4C4"/>
</mask>
<g mask="url(#mask0_11_1701)">
<path d="M18.7499 11.1081V9.40808H14.3499V15.8081H16.0499V13.8081H18.0499V12.1081H16.0499V11.1081H18.7499ZM11.4499 9.40808H13.1499V15.8081H11.4499V9.40808ZM7.8499 11.0081C8.2499 11.0081 8.7499 11.2081 9.0499 11.5081L10.2499 10.5081C9.6499 9.80808 8.7499 9.40808 7.8499 9.40808C6.0499 9.40808 4.6499 10.8081 4.6499 12.6081C4.6499 14.4081 6.0499 15.8081 7.8499 15.8081C8.8499 15.8081 9.6499 15.4081 10.2499 14.7081V12.2081H7.4499V13.4081H8.6499V14.0081C8.4499 14.1081 8.1499 14.2081 7.8499 14.2081C6.9499 14.2081 6.2499 13.5081 6.2499 12.6081C6.2499 11.8081 6.9499 11.0081 7.8499 11.0081Z" fill="#1D9BF0"/>
<path d="M20.25 2.62805H3.25C2.01 2.62805 1 3.63505 1 4.87505V20.382C1 21.6201 2.01 22.628 3.25 22.628H20.25C21.49 22.628 22.5 21.6201 22.5 20.382V4.87505C22.5 3.63505 21.49 2.62805 20.25 2.62805ZM21 20.382C21 20.792 20.664 21.128 20.25 21.128H3.25C2.836 21.128 2.5 20.792 2.5 20.382V4.87505C2.5 4.46305 2.836 4.12805 3.25 4.12805H20.25C20.664 4.12805 21 4.46305 21 4.87505V20.382Z" fill="#1D9BF0"/>
</g>
</svg>
