<svg width="24" height="25" viewBox="0 0 24 25" fill="none" xmlns="http://www.w3.org/2000/svg">
<mask id="mask0_11_1687" style="mask-type:alpha" maskUnits="userSpaceOnUse" x="0" y="0" width="24" height="25">
<rect y="0.628052" width="24" height="24" fill="#C4C4C4"/>
</mask>
<g mask="url(#mask0_11_1687)">
<path d="M19.75 2.62805H4.25C3.01 2.62805 2 3.63805 2 4.87805V20.3781C2 21.6181 3.01 22.6281 4.25 22.6281H19.75C20.99 22.6281 22 21.6181 22 20.3781V4.87805C22 3.63805 20.99 2.62805 19.75 2.62805ZM4.25 4.12805H19.75C20.163 4.12805 20.5 4.46505 20.5 4.87805V14.5541L16.642 10.6961C16.502 10.5561 16.312 10.4761 16.112 10.4761H16.109C15.909 10.4761 15.716 10.5561 15.577 10.7001L11.26 15.0841L9.44701 13.2781C9.30701 13.1381 9.11701 13.0581 8.91701 13.0581C8.72401 13.0281 8.522 13.1381 8.382 13.2851L3.5 18.2701V4.87805C3.5 4.46505 3.837 4.12805 4.25 4.12805ZM3.506 20.4081L8.924 14.8741L15.206 21.1281H4.25C3.848 21.1281 3.523 20.8061 3.506 20.4081ZM19.75 21.1281H17.33L12.323 16.1411L16.115 12.291L20.5 16.6751V20.3781C20.5 20.7911 20.163 21.1281 19.75 21.1281Z" fill="#1D9BF0"/>
<path d="M8.86816 10.479C9.72016 10.479 10.4102 9.78872 10.4102 8.93702C10.4102 8.08542 9.72016 7.39502 8.86816 7.39502C8.01616 7.39502 7.32617 8.08542 7.32617 8.93702C7.32617 9.78872 8.01616 10.479 8.86816 10.479Z" fill="#1D9BF0"/>
</g>
</svg>
