<svg width="24" height="24" viewBox="0 0 24 24" fill="none" xmlns="http://www.w3.org/2000/svg">
<g opacity="0.6">
<path d="M12 14.315C9.912 14.315 8.213 12.617 8.213 10.529C8.213 8.44099 9.913 6.73999 12 6.73999C14.087 6.73999 15.787 8.43999 15.787 10.527C15.787 12.614 14.087 14.312 12 14.312V14.315ZM12 8.24199C10.74 8.24199 9.713 9.26799 9.713 10.529C9.713 11.79 10.74 12.814 12 12.814C13.26 12.814 14.287 11.789 14.287 10.528C14.287 9.26699 13.26 8.23999 12 8.23999V8.24199Z" fill="black"/>
<path d="M20.384 10.69C20.384 5.9 16.484 2 11.692 2C6.9 2 3 5.9 3 10.69C3 12.592 3.603 14.398 4.743 15.913L4.746 15.911L4.753 15.926C6.381 17.996 11.031 21.683 11.228 21.838C11.366 21.948 11.53 22.001 11.693 22.001C11.856 22.001 12.02 21.948 12.158 21.839C12.355 21.684 17.005 17.999 18.633 15.927L18.64 15.913L18.642 15.915C19.782 14.399 20.384 12.595 20.384 10.692V10.69ZM11.692 20.29C10.468 19.3 7.172 16.575 5.936 15.005C4.996 13.755 4.5 12.263 4.5 10.693C4.5 6.727 7.727 3.5 11.692 3.5C15.657 3.5 18.884 6.726 18.884 10.69C18.884 12.26 18.387 13.752 17.448 15.003C16.212 16.573 12.916 19.297 11.692 20.288V20.29Z" fill="black"/>
</g>
</svg>
