<svg width="24" height="25" viewBox="0 0 24 25" fill="none" xmlns="http://www.w3.org/2000/svg">
<mask id="mask0_11_1707" style="mask-type:alpha" maskUnits="userSpaceOnUse" x="0" y="0" width="24" height="25">
<rect y="0.628052" width="24" height="24" fill="#C4C4C4"/>
</mask>
<g mask="url(#mask0_11_1707)">
<path d="M11.75 23.1281C5.822 23.1281 1 18.3061 1 12.3781C1 6.45005 5.822 1.62805 11.75 1.62805C17.678 1.62805 22.5 6.45005 22.5 12.3781C22.5 18.3061 17.678 23.1281 11.75 23.1281ZM11.75 3.12805C6.65 3.12805 2.5 7.27805 2.5 12.3781C2.5 17.4781 6.65 21.6281 11.75 21.6281C16.85 21.6281 21 17.4781 21 12.3781C21 7.27805 16.85 3.12805 11.75 3.12805Z" fill="#1D9BF0"/>
<path d="M11.7502 17.4931C9.85824 17.4931 8.11725 16.5431 7.09425 14.9491C6.87025 14.6011 6.97125 14.1391 7.32025 13.9141C7.66825 13.6881 8.13225 13.7901 8.35625 14.1401C9.10325 15.3021 10.3722 15.9951 11.7512 15.9951C13.1302 15.9951 14.3992 15.3021 15.1472 14.1411C15.3712 13.7911 15.8352 13.6911 16.1832 13.9161C16.5332 14.1401 16.6332 14.6041 16.4092 14.9521C15.3842 16.5461 13.6432 17.4971 11.7512 17.4971L11.7502 17.4931Z" fill="#1D9BF0"/>
<path d="M14.4878 11.314C15.3041 11.314 15.9658 10.6523 15.9658 9.83603C15.9658 9.01973 15.3041 8.35803 14.4878 8.35803C13.6715 8.35803 13.0098 9.01973 13.0098 9.83603C13.0098 10.6523 13.6715 11.314 14.4878 11.314Z" fill="#1D9BF0"/>
<path d="M9.01218 11.314C9.82848 11.314 10.4902 10.6523 10.4902 9.83603C10.4902 9.01973 9.82848 8.35803 9.01218 8.35803C8.1959 8.35803 7.53418 9.01973 7.53418 9.83603C7.53418 10.6523 8.1959 11.314 9.01218 11.314Z" fill="#1D9BF0"/>
</g>
</svg>
