<svg width="24" height="25" viewBox="0 0 24 25" fill="none" xmlns="http://www.w3.org/2000/svg">
<mask id="mask0_11_1704" style="mask-type:alpha" maskUnits="userSpaceOnUse" x="0" y="0" width="24" height="25">
<rect y="0.628052" width="24" height="24" fill="#C4C4C4"/>
</mask>
<g mask="url(#mask0_11_1704)">
<path d="M20.222 10.18H18.888C18.903 10.09 18.916 9.99805 18.916 9.90305V7.59005C18.916 6.61005 18.119 5.81305 17.138 5.81305H3.5V4.37805C3.5 3.96405 3.164 3.62805 2.75 3.62805C2.336 3.62805 2 3.96405 2 4.37805V21.8501C2 22.2651 2.336 22.6001 2.75 22.6001C3.164 22.6001 3.5 22.2651 3.5 21.8501V20.416H14.056C15.036 20.416 15.834 19.619 15.834 18.639V16.326C15.834 16.231 15.82 16.139 15.806 16.048H20.223C21.203 16.048 22.001 15.25 22.001 14.2701V11.96C22.001 10.977 21.204 10.18 20.223 10.18H20.222ZM17.14 7.31305C17.292 7.31305 17.417 7.43705 17.417 7.59005V9.90005C17.417 10.0541 17.292 10.18 17.139 10.18H3.5V7.31005H17.14V7.31305ZM14.333 16.327V18.639C14.333 18.792 14.208 18.916 14.055 18.916H3.5V16.048H14.056C14.209 16.048 14.333 16.174 14.333 16.328V16.327ZM20.5 14.2701C20.5 14.423 20.375 14.5471 20.222 14.5471H3.5V11.68H20.222C20.375 11.68 20.5 11.8041 20.5 11.9571V14.2701Z" fill="#1D9BF0"/>
</g>
</svg>
